<svg width="89" height="89" viewBox="0 0 89 89" fill="none" xmlns="http://www.w3.org/2000/svg">
<path fill-rule="evenodd" clip-rule="evenodd" d="M18.3184 20.7639C16.9459 21.2048 16.207 21.6751 15.1494 22.7813C13.4297 24.5802 12.9218 26.0553 12.9218 29.2508C12.9218 32.0337 13.3246 32.7579 14.8715 32.7579C15.3377 32.7579 15.7142 32.5987 16.1334 32.224L16.731 31.6901L16.8382 29.295L16.9455 26.8998L27.6479 36.0515C33.5342 41.0851 38.3503 45.2453 38.3503 45.2968C38.3503 45.3483 33.5342 49.5086 27.6479 54.5421L16.9455 63.6938L16.8382 61.2986L16.731 58.9035L16.1334 58.3696C15.7142 57.9949 15.3377 57.8357 14.8715 57.8357C13.3246 57.8357 12.9218 58.5599 12.9218 61.3428C12.9218 63.6138 13.233 65.1086 13.9663 66.3597C14.6793 67.5767 16.4767 69.1493 17.7343 69.6568L18.817 70.0938H50.3513H81.8856L83.102 69.5118C84.8842 68.659 85.9603 67.6143 86.7941 65.9274L87.5 64.4989V45.3065V26.1142L86.9077 24.8641C86.0835 23.1243 85.0225 22.0406 83.3193 21.1988L81.905 20.4998L50.6417 20.4616C20.8711 20.4253 19.3279 20.4397 18.3184 20.7639ZM80.5465 24.2895C80.6948 24.5294 51.3849 49.4906 50.7349 49.6779C50.2972 49.8041 49.9895 49.7713 49.546 49.5514C49.217 49.3882 45.5762 46.3639 41.4556 42.8309C37.3348 39.298 30.8292 33.7236 26.9985 30.4433C23.1676 27.1632 20.0334 24.4052 20.0334 24.3142C20.0334 24.113 80.4225 24.0883 80.5465 24.2895ZM83.8448 45.2968C83.8448 55.1267 83.7821 63.2682 83.7054 63.3889C83.5553 63.6247 62.4223 45.6636 62.4223 45.3004C62.4223 44.9367 83.5551 26.9687 83.7052 27.2047C83.7821 27.3254 83.8448 35.4669 83.8448 45.2968ZM8.12205 38.916C6.82362 39.7166 6.95444 41.6433 8.34644 42.225C8.91574 42.4628 10.0171 42.4993 15.1996 42.4522L21.3747 42.396L21.9204 41.7848C22.6581 40.9589 22.6581 40.0902 21.9204 39.2643L21.3745 38.6531L15.0428 38.6029C9.05441 38.5556 8.679 38.5726 8.12205 38.916ZM44.2778 50.303C47.7383 53.3191 48.2773 53.6179 50.2577 53.6187C52.3105 53.6194 52.8974 53.3043 56.1528 50.4527C57.6453 49.1455 58.9709 48.0314 59.0983 47.9771C59.359 47.8661 80.6788 66.0846 80.5454 66.3041C80.4245 66.5025 20.0334 66.4808 20.0334 66.2824C20.0334 66.092 41.1687 47.9169 41.3899 47.9169C41.4724 47.9169 42.772 48.9907 44.2778 50.303ZM2.81586 48.2322C2.66146 48.2902 2.30345 48.5537 2.02049 48.8174C1.03291 49.7374 1.5296 51.6143 2.84674 51.9398C3.08704 51.9993 7.35418 52.0238 12.3291 51.9942L21.3743 51.9405L21.9204 51.3293C22.6581 50.5034 22.6581 49.6347 21.9204 48.8088L21.3743 48.1976L12.2355 48.162C7.20914 48.1426 2.97026 48.1742 2.81586 48.2322Z" fill="#FFCF52" stroke="#FFCF52"/>
</svg>
