<svg width="24" height="24" fill="none" xmlns="http://www.w3.org/2000/svg"><path fill-rule="evenodd" clip-rule="evenodd" d="M10.796 2.039c-4.24.486-7.758 3.748-8.583 7.959-.11.565-.156.929-.187 1.508L2 11.999h1.573v-.212c0-.116.019-.395.041-.618.36-3.577 2.913-6.539 6.365-7.383a7.533 7.533 0 011.949-.229c1.033 0 1.76.113 2.694.423a8.335 8.335 0 014.298 3.281l.272.403-.938.01-.939.01v1.568h4.646V4.545h-1.56l-.01 1.044-.011 1.044-.195-.288A9.315 9.315 0 0019.075 5a9.858 9.858 0 00-5.897-2.946c-.529-.065-1.874-.075-2.382-.016zM8.369 8.144c-.726.74-.755.796-.754 1.422 0 .373.015.453.148.844.422 1.235 1.014 2.108 2.33 3.434 1.254 1.264 2.028 1.803 3.4 2.365.836.343 1.152.371 1.626.146.188-.09.35-.23.824-.714l.59-.602-1.288-1.294-1.287-1.295-.635.638c-.349.35-.659.637-.688.637-.084 0-.68-.518-1.238-1.077-.539-.54-1.148-1.227-1.148-1.295 0-.022.285-.327.634-.678l.634-.638-1.248-1.255a56.899 56.899 0 00-1.271-1.256c-.013 0-.296.278-.629.618zm12.07 4.066c0 .64-.188 1.724-.418 2.417-.911 2.745-3.132 4.838-5.89 5.552a7.794 7.794 0 01-2.106.262c-1.013 0-1.734-.115-2.672-.424a8.353 8.353 0 01-4.295-3.273l-.277-.41.958-.011.958-.01v-1.568H2.012v4.707h1.56l.01-1.044.011-1.044.195.288a9.32 9.32 0 001.11 1.344 9.899 9.899 0 006.082 2.97c.652.07 2.09.028 2.676-.076 1.763-.316 3.297-1.012 4.655-2.111.492-.4 1.28-1.215 1.653-1.713a10.014 10.014 0 001.858-4.198c.1-.544.178-1.266.178-1.644V12h-1.562v.211z" fill="#FFCF52"/></svg>