<svg width="67" height="66" fill="none" xmlns="http://www.w3.org/2000/svg"><rect x=".5" width="66" height="66" rx="33" fill="#FFCF52"/><path fill-rule="evenodd" clip-rule="evenodd" d="M25.191 19.97c-4.043 1.662-7.282 3.029-7.365 3.107-.346.322-.326-.284-.326 9.922 0 10.206-.02 9.6.326 9.922C18.028 43.11 32.373 49 32.63 49c.21 0 14.407-5.795 14.684-5.993a1.52 1.52 0 00.297-.32l.14-.206V23.517l-.14-.207a1.523 1.523 0 00-.297-.319c-.298-.214-14.475-5.994-14.697-5.991-.13.002-2.951 1.13-7.427 2.97zm9.161-.184c.89.364 1.638.68 1.661.703.052.049-11.121 4.924-11.222 4.896-.14-.038-3.635-1.472-3.682-1.511-.057-.047 11.302-4.737 11.493-4.745.073-.004.86.292 1.75.656zm7.136 2.934c1.488.612 2.683 1.131 2.657 1.154-.027.024-2.628 1.1-5.78 2.394l-5.732 2.351-2.516-1.033a195.546 195.546 0 01-2.594-1.076c-.043-.025 1.002-.514 2.404-1.124a4760.49 4760.49 0 005.606-2.45c1.719-.752 3.153-1.359 3.188-1.348.034.011 1.28.52 2.767 1.132zM21.79 26.33l2.18.895.032 2.778c.029 2.591.039 2.79.15 2.974.377.622 1.355.587 1.71-.061.096-.175.112-.472.14-2.52l.031-2.323 2.782 1.143 2.781 1.143.016 8.07.016 8.069-.274-.108c-.15-.06-2.878-1.178-6.061-2.484l-5.789-2.375-.001-8.048c-.001-4.537.022-8.047.053-8.047.03 0 1.035.402 2.234.895zm23.963 7.153v8.048l-1.484.606c-1.088.444-9.924 4.077-10.564 4.344-.062.026-.075-1.59-.062-8.043l.016-8.075 5.969-2.458c3.283-1.352 6.004-2.461 6.047-2.464.062-.004.078 1.643.078 8.042z" fill="#fff"/></svg>