<svg width="24" height="24" fill="none" xmlns="http://www.w3.org/2000/svg"><path d="M13.322 12l4.486-4.487A.653.653 0 0018 7.049a.651.651 0 00-.192-.464l-.393-.393A.65.65 0 0016.951 6a.65.65 0 00-.464.192L12 10.678 7.513 6.192A.65.65 0 007.05 6a.65.65 0 00-.464.192l-.393.393a.657.657 0 000 .928L10.679 12l-4.487 4.486A.653.653 0 006 16.95c0 .176.068.34.192.465l.393.393a.65.65 0 00.464.191.65.65 0 00.464-.191L12 13.32l4.487 4.487a.651.651 0 00.464.191c.176 0 .34-.068.464-.191l.393-.393A.652.652 0 0018 16.95a.653.653 0 00-.192-.464L13.322 12z" fill="#fff"/></svg>