<svg width="30" height="30" fill="none" xmlns="http://www.w3.org/2000/svg"><path fill-rule="evenodd" clip-rule="evenodd" d="M24.103 2.056c-.134.043-.34.173-.459.289-.319.31-.379.578-.379 1.688v.93l-.459-.347a13.227 13.227 0 00-5.113-2.329c-1.612-.355-3.786-.344-5.515.028-1.252.27-2.92.95-4.045 1.649-1.45.9-2.94 2.325-3.874 3.704-2.94 4.336-3.017 10.039-.194 14.377.71 1.091 1.765 2.276 2.704 3.035 2.268 1.833 5.062 2.868 7.874 2.917.618.01.683.001.913-.127.371-.209.574-.534.601-.963.027-.412-.09-.694-.397-.964-.262-.23-.448-.276-1.255-.313-5.217-.241-9.443-4.18-10.09-9.403-.074-.604-.074-1.84 0-2.443.292-2.354 1.296-4.48 2.902-6.142 3.248-3.362 8.174-4.228 12.372-2.176.628.307 1.46.823 1.83 1.134l.166.14-1.125.001c-.996.002-1.149.015-1.33.108-.898.462-.898 1.656 0 2.118.193.1.356.105 2.843.105 2.876 0 2.865.001 3.21-.321.087-.083.205-.25.262-.372.095-.206.102-.41.103-2.835l.002-2.614-.155-.296a1.164 1.164 0 00-1.392-.578zM14.45 6.868c-.137.074-.324.24-.416.37l-.166.236-.017 3.863c-.012 2.803.001 3.923.048 4.084.053.184.387.547 1.928 2.094 1.025 1.03 1.962 1.941 2.082 2.024.192.133.271.152.644.152.374 0 .452-.019.643-.152.327-.228.484-.496.51-.873.044-.59.043-.592-1.824-2.47l-1.71-1.72-.016-3.497-.015-3.497-.151-.217c-.243-.347-.498-.488-.924-.51-.304-.017-.409.002-.616.113zm11.894 7.075c-.785.374-.928 1.37-.28 1.94.263.23.41.287.757.287.69 0 1.176-.484 1.177-1.172 0-.39-.2-.759-.527-.976-.3-.198-.803-.233-1.127-.079zm-.887 4.529c-.78.419-.925 1.391-.291 1.948.258.227.538.315.904.285 1.068-.089 1.423-1.495.535-2.119-.197-.138-.303-.17-.61-.185-.265-.013-.42.007-.538.07zm-2.437 3.753c-.33.09-.718.506-.803.859a1.15 1.15 0 00.613 1.313c.49.245.973.166 1.362-.223.846-.845-.009-2.267-1.172-1.948zm-3.884 2.607c-.392.14-.7.51-.778.94-.064.35.099.777.394 1.037.718.631 1.79.24 1.942-.708.134-.84-.746-1.557-1.559-1.269z" fill="#3C7C31"/></svg>