<svg width="30" height="30" fill="none" xmlns="http://www.w3.org/2000/svg"><path fill-rule="evenodd" clip-rule="evenodd" d="M5.247 2.07c-.606.133-.876.32-1.95 1.348C2.073 4.591 2 4.688 2 5.146c0 .286.021.369.139.537.275.394.698.551 1.153.429.182-.049.338-.172.825-.648l.6-.588.013 8.506.014 8.506.142.458A4.18 4.18 0 007.64 25.1l.458.142 8.479.014 8.479.013-.588.605c-.469.483-.599.65-.646.824a1.021 1.021 0 001.27 1.263c.196-.053.374-.207 1.312-1.136.999-.989 1.102-1.108 1.286-1.481.384-.782.381-1.53-.007-2.305-.175-.35-.306-.5-1.28-1.464-.937-.929-1.115-1.083-1.31-1.135a1.056 1.056 0 00-1.167.44c-.104.153-.127.25-.127.522 0 .416.048.491.807 1.262l.564.572-8.409-.013-8.41-.014-.273-.111c-.568-.233-.962-.623-1.184-1.171l-.118-.293-.013-8.435-.013-8.434.572.564c.77.759.846.808 1.258.806.275 0 .365-.024.534-.139.396-.269.555-.691.434-1.156-.053-.202-.183-.349-1.136-1.283C7.23 2.4 6.959 2.207 6.307 2.07a2.15 2.15 0 00-1.06 0zm6.258-.038c-.233.06-.488.288-.619.556-.233.477-.096.962.362 1.275l.203.14 6.91.025 6.911.025.194.12c.107.067.255.214.33.327l.137.206.025 6.94.026 6.94.139.203c.19.277.431.429.74.465.353.042.747-.145.956-.453l.146-.215.014-6.898c.015-7.666.03-7.29-.326-8.016-.257-.525-.814-1.082-1.34-1.34-.718-.351-.349-.336-7.9-.33-3.745.003-6.854.016-6.908.03zm9.53 5.506c-.926.182-1.698 1-1.846 1.959-.068.442-.03.659.168.93a1.01 1.01 0 001.617 0 1.13 1.13 0 00.184-.397c.06-.37.08-.417.2-.472.165-.076.35-.02.43.129.058.109.05.153-.076.385-.22.404-.908 1.224-1.713 2.043-.613.624-.743.783-.797.976a1.02 1.02 0 00.829 1.278c.116.017.885.024 1.71.015 1.475-.016 1.502-.018 1.693-.137a1.3 1.3 0 00.33-.326c.113-.171.136-.263.136-.54 0-.596-.346-.958-.964-1.007-.182-.015-.331-.038-.331-.05 0-.014.11-.165.247-.337.57-.719.93-1.42.998-1.938.018-.14.009-.4-.02-.578a2.372 2.372 0 00-2.795-1.933zm-11.58 3.556c-.235.072-.553.407-.62.652-.037.14-.05 1.286-.04 3.602l.014 3.397.136.206c.21.317.459.447.855.447.396 0 .644-.13.854-.447l.137-.206.025-2.57c.025-2.557.026-2.57.139-2.728a.773.773 0 011.247 0c.112.158.113.171.138 2.729l.026 2.57.136.205c.21.317.458.447.855.447.396 0 .644-.13.854-.447l.136-.206.026-2.57c.025-2.557.026-2.57.139-2.728.328-.46 1.063-.403 1.303.102.072.153.082.468.082 2.612v2.438l.142.271c.114.22.193.298.412.412.346.181.579.181.925 0a.793.793 0 00.412-.412l.142-.27v-2.475c0-1.546-.02-2.588-.055-2.777-.192-1.058-1.14-2-2.222-2.21-.648-.125-1.408.02-1.992.38l-.302.187-.338-.204c-.499-.3-.81-.38-1.468-.38-.405 0-.626.025-.803.09-.238.087-.247.086-.418-.02-.202-.124-.632-.172-.877-.097z" fill="#3C7C31"/></svg>