<svg width="30" height="30" fill="none" xmlns="http://www.w3.org/2000/svg"><path fill-rule="evenodd" clip-rule="evenodd" d="M13.827 2.03c-2.51.247-4.832 1.172-6.866 2.74-.991.762-2.278 2.196-3.022 3.366-.32.505-.946 1.786-1.17 2.397-.25.683-.517 1.727-.648 2.537-.161.992-.161 2.874 0 3.866a12.79 12.79 0 001.202 3.789c.672 1.37 1.371 2.342 2.49 3.461 1.12 1.12 2.092 1.819 3.462 2.491 1.255.616 2.388.975 3.79 1.203.99.16 2.873.16 3.865 0a12.79 12.79 0 003.79-1.203c1.37-.672 2.341-1.371 3.46-2.49 1.12-1.12 1.82-2.091 2.492-3.462.446-.91.67-1.507.912-2.422.32-1.218.401-1.886.401-3.3s-.081-2.082-.401-3.3c-.241-.915-.466-1.512-.912-2.422-.673-1.37-1.372-2.342-2.491-3.462-1.12-1.12-2.091-1.818-3.462-2.49a12.646 12.646 0 00-3.764-1.195c-.747-.118-2.417-.173-3.128-.103zm2.747 2.013c1.866.277 3.586.996 5.086 2.126.62.467 1.704 1.55 2.171 2.17 1.476 1.96 2.224 4.201 2.224 6.664 0 2.462-.748 4.703-2.224 6.663-.467.62-1.55 1.704-2.17 2.17-1.96 1.477-4.201 2.225-6.664 2.225s-4.703-.748-6.663-2.224c-.62-.467-1.704-1.551-2.17-2.171-1.477-1.96-2.224-4.2-2.224-6.663s.747-4.704 2.223-6.663c.467-.62 1.551-1.704 2.171-2.171 1.71-1.288 3.641-2.016 5.9-2.223.428-.04 1.804.018 2.34.097zm-4.145 5.64a.965.965 0 00-.488.508c-.09.199-.095.43-.096 4.814l-.001 4.606.126.252c.156.312.405.488.734.52.445.042.81-.151.976-.519.086-.19.094-.366.095-2.051l.002-1.844h1.519c1.62 0 1.85-.023 2.386-.235a3.167 3.167 0 001.894-3.753c-.149-.58-.373-.963-.84-1.43-.467-.466-.848-.69-1.43-.84-.361-.092-.564-.1-2.559-.098-1.7.002-2.199.017-2.318.07zm4.577 1.982c1.036.49.948 1.971-.135 2.293-.21.062-.552.078-1.68.078h-1.415v-2.492h1.488c1.458.001 1.493.003 1.742.121z" fill="#3C7C31"/><path d="M10.342 17.844c0-.52.42-.94.94-.94h6.765a.941.941 0 110 1.881h-6.764a.94.94 0 01-.941-.941z" fill="#3C7C31"/></svg>