<svg width="66" height="66" fill="none" xmlns="http://www.w3.org/2000/svg"><rect width="66" height="66" rx="33" fill="#FFCF52"/><path fill-rule="evenodd" clip-rule="evenodd" d="M41.327 17.07c-2.472.237-4.9.768-7.537 1.646-4.34 1.445-7.283 3.2-9.178 5.47a17.576 17.576 0 00-3.776 7.865c-.289 1.442-.377 2.314-.377 3.707.002 2.358.348 4.11 1.15 5.806l.383.814-2.417 2.425c-2.71 2.72-2.726 2.74-2.473 3.403.22.577.85.906 1.45.759.142-.035 1.022-.86 2.662-2.495l2.45-2.444.507.27c1.624.862 3.592 1.267 6.155 1.267 1.798 0 2.755-.12 4.495-.56 3.474-.88 6.824-2.916 8.776-5.336 2.016-2.5 3.777-6.593 4.761-11.073.634-2.883.833-5.056.64-6.978-.299-2.962-1.464-4.2-4.284-4.55-.725-.09-2.441-.088-3.387.003zm3.634 2.444c.73.147 1.107.374 1.314.791 1.003 2.02.108 8.297-1.87 13.108-.512 1.245-1.391 2.966-1.943 3.802-2.028 3.075-5.959 5.327-10.254 5.874-.789.1-1.336.12-2.447.087-1.763-.053-2.69-.232-4.139-.802l-.222-.087 3.16-3.16 3.158-3.16h3.955c2.452 0 4.06-.029 4.23-.077.33-.091.704-.492.806-.861.143-.518-.153-1.08-.699-1.329-.281-.127-.544-.14-3.093-.14l-2.786-.002 1.467-1.469 1.467-1.469h3.45c3.324 0 3.46-.005 3.75-.153.334-.17.558-.482.633-.88.065-.345-.208-.902-.555-1.132-.235-.155-.344-.17-1.288-.17a69.11 69.11 0 01-2.29-.05l-1.26-.049 2.07-2.078c1.807-1.814 2.078-2.115 2.124-2.368.098-.535-.23-1.157-.706-1.338-.263-.1-.75-.08-.978.041-.112.06-1.762 1.67-3.668 3.578l-3.465 3.47-.037-2.593c-.036-2.483-.045-2.603-.195-2.806-.549-.74-1.472-.74-2.02 0-.155.208-.158.291-.18 4.033l-.02 3.82-1.417 1.415-1.417 1.416-.05-.741a55.804 55.804 0 01-.05-2.549c-.002-1.599-.018-1.843-.142-2.116a1.154 1.154 0 00-2.023-.165l-.2.302.022 3.845.022 3.845-1.682 1.682c-.925.926-1.703 1.683-1.73 1.683-.075 0-.407-.877-.543-1.43-.842-3.433-.372-7.188 1.319-10.544 1.468-2.914 3.353-4.73 6.464-6.23 2.89-1.392 7.083-2.585 10.133-2.882a68.63 68.63 0 011.203-.107c.635-.044 2.08.036 2.622.145z" fill="#fff"/></svg>