<svg width="24" height="24" fill="none" xmlns="http://www.w3.org/2000/svg"><path fill-rule="evenodd" clip-rule="evenodd" d="M11.703 5.007c-.625.071-.984.149-1.386.3a5.133 5.133 0 00-2.577 2.12 5.1 5.1 0 00-.707 3.202c.213 1.725 1.441 4.108 3.478 6.745.482.623 1.102 1.37 1.244 1.499.187.17.42.17.607 0 .142-.129.761-.876 1.243-1.5 1.833-2.373 3.008-4.529 3.38-6.202a4.62 4.62 0 00.126-1.158 4.975 4.975 0 00-1.473-3.518A4.966 4.966 0 0012.85 5.06c-.256-.042-.962-.075-1.147-.053zm.674 2.53a2.586 2.586 0 012.14 1.86c.073.26.1.783.056 1.067a2.56 2.56 0 01-1.409 1.889 2.418 2.418 0 01-1.358.245 2.21 2.21 0 01-.854-.245 2.56 2.56 0 01-1.409-1.89A3.242 3.242 0 019.6 9.398c.342-1.22 1.547-2.027 2.778-1.86z" fill="#fff"/></svg>