<svg width="89" height="89" fill="none" xmlns="http://www.w3.org/2000/svg"><path fill-rule="evenodd" clip-rule="evenodd" d="M18.318 20.764c-1.372.44-2.111.911-3.169 2.017-1.72 1.8-2.227 3.274-2.227 6.47 0 2.783.403 3.507 1.95 3.507.466 0 .842-.16 1.261-.534l.598-.534.107-2.395.107-2.395 10.703 9.151c5.886 5.034 10.702 9.194 10.702 9.246 0 .051-4.816 4.212-10.702 9.245l-10.703 9.152-.107-2.395-.107-2.395-.598-.534c-.419-.375-.795-.534-1.261-.534-1.547 0-1.95.724-1.95 3.507 0 2.27.311 3.766 1.044 5.017.713 1.217 2.51 2.79 3.768 3.297l1.083.437h63.069l1.216-.582c1.782-.853 2.858-1.898 3.692-3.585L87.5 64.5V26.114l-.592-1.25c-.825-1.74-1.886-2.823-3.589-3.665l-1.414-.7-31.263-.037c-29.77-.037-31.314-.022-32.324.302zm62.228 3.526c.149.24-29.161 25.2-29.811 25.388-.438.126-.745.093-1.189-.127-.329-.163-3.97-3.187-8.09-6.72-4.121-3.533-10.627-9.107-14.458-12.388-3.83-3.28-6.965-6.038-6.965-6.129 0-.201 60.39-.226 60.513-.024zm3.299 21.007c0 9.83-.063 17.971-.14 18.092-.15.236-21.283-17.725-21.283-18.089 0-.363 21.133-18.331 21.283-18.095.077.12.14 8.262.14 18.092zM8.122 38.916c-1.298.8-1.168 2.727.224 3.309.57.238 1.671.274 6.854.227l6.175-.056.545-.611c.738-.826.738-1.695 0-2.52l-.546-.612-6.331-.05c-5.989-.047-6.364-.03-6.92.313zm36.156 11.387c3.46 3.016 4 3.315 5.98 3.316 2.052 0 2.64-.315 5.895-3.166 1.492-1.308 2.818-2.422 2.945-2.476.261-.11 21.58 18.108 21.447 18.327-.12.198-60.512.177-60.512-.022 0-.19 21.136-18.365 21.357-18.365.082 0 1.382 1.074 2.888 2.386zm-41.462-2.07c-.155.057-.513.32-.796.584-.987.92-.49 2.797.827 3.123.24.06 4.507.084 9.482.054l9.045-.053.546-.612c.738-.826.738-1.694 0-2.52l-.546-.611-9.138-.036c-5.027-.02-9.266.012-9.42.07z" fill="#FFCF52" stroke="#FFCF52"/></svg>