<svg width="67" height="66" fill="none" xmlns="http://www.w3.org/2000/svg"><rect x=".5" width="66" height="66" rx="33" fill="#FFCF52"/><path fill-rule="evenodd" clip-rule="evenodd" d="M42.857 17.067c-1.003.165-2.396.728-2.907 1.177-.766.673-.328 1.949.699 2.034.306.025.403-.003 1.082-.322.902-.424 1.418-.555 2.203-.558 2.367-.01 3.694 1.99 2.964 4.469-.116.393-.452 1.083-.71 1.46-1.433 2.081-4.013 3.065-5.845 2.229-.21-.096-.594-.349-.852-.56-.579-.477-.99-.643-1.595-.643-1.694 0-2.772 1.687-2.05 3.208.673 1.42 2.464 1.744 3.628.659l.299-.28.47.125c.316.085.756.136 1.355.158l.887.032.034.29c.085.72.177 2.552.15 2.993-.058.967.274.59-6.225 7.057-4.058 4.037-5.864 5.793-6.046 5.88-.37.174-.983.163-1.356-.025-.386-.195-8.815-8.618-9.005-9-.194-.389-.225-.747-.101-1.179l.105-.369 5.83-5.837c6.475-6.482 6.147-6.19 7.04-6.255.237-.017 2.666.118 5.398.3 2.81.187 5.07.311 5.204.286.46-.086.919-.667.919-1.164 0-.468-.373-.973-.825-1.12-.113-.036-2.545-.222-5.405-.413-5.607-.373-5.636-.374-6.527-.089a4.272 4.272 0 00-1.256.624c-.19.13-3.035 2.935-6.324 6.233-5.538 5.554-5.993 6.026-6.173 6.406-.334.706-.421 1.086-.422 1.843 0 .544.03.786.144 1.157.313 1.013.263.956 5.134 5.826 4.796 4.794 4.77 4.771 5.727 5.092 1.012.34 2.034.265 3.04-.225l.532-.258 5.967-5.953c4.5-4.49 6.04-6.063 6.265-6.404.165-.248.386-.69.492-.983.313-.864.339-1.31.197-3.32-.162-2.294-.168-2.127.075-2.227.32-.132 1.232-.76 1.689-1.16 2.01-1.764 3.052-4.414 2.647-6.736-.384-2.201-1.868-3.81-4.031-4.37-.633-.165-1.804-.205-2.521-.088z" fill="#fff"/></svg>