<svg width="66" height="66" viewBox="0 0 66 66" fill="none" xmlns="http://www.w3.org/2000/svg">
<rect width="66" height="66" rx="33" fill="#FFCF52"/>
<path fill-rule="evenodd" clip-rule="evenodd" d="M41.3268 17.0691C38.8553 17.3072 36.4263 17.8379 33.7902 18.7159C29.4502 20.1614 26.5071 21.9155 24.6115 24.1865C22.6973 26.4799 21.4187 29.1433 20.836 32.0513C20.5473 33.4927 20.4585 34.3652 20.4593 35.7579C20.4606 38.1158 20.8071 39.8673 21.6082 41.5642L21.9922 42.3776L19.575 44.8029C16.8648 47.5221 16.8494 47.5433 17.1025 48.2062C17.3229 48.7834 17.9514 49.1122 18.5524 48.9649C18.694 48.9302 19.5737 48.1054 21.2137 46.4697L23.6635 44.0264L24.1713 44.2962C25.7949 45.1583 27.7633 45.5634 30.3255 45.563C32.1242 45.5626 33.0811 45.4434 34.8211 45.0028C38.2952 44.1232 41.6448 42.0867 43.5967 39.6673C45.6131 37.1679 47.3737 33.0737 48.3582 28.5945C48.9919 25.7109 49.191 23.5383 48.9976 21.6165C48.6994 18.6539 47.5339 17.4161 44.7135 17.0665C43.9889 16.9767 42.2729 16.9781 41.3268 17.0691ZM44.961 19.5142C45.6911 19.6611 46.0679 19.888 46.2752 20.3053C47.2782 22.3249 46.3826 28.6015 44.405 33.4125C43.8933 34.6575 43.0138 36.379 42.4622 37.2154C40.4341 40.2904 36.503 42.5422 32.2085 43.0888C31.4192 43.1893 30.8716 43.2087 29.7607 43.1756C27.9977 43.1232 27.0709 42.9438 25.6221 42.3745L25.4003 42.2873L28.5593 39.1276L31.7183 35.9679L35.6729 35.9675C38.1254 35.9673 39.7324 35.938 39.9038 35.8904C40.2329 35.7989 40.6073 35.3984 40.7095 35.0285C40.8523 34.5111 40.556 33.9485 40.0101 33.7005C39.729 33.5729 39.4659 33.5609 36.9168 33.5594L34.1306 33.5577L35.5979 32.089L37.0652 30.6203H40.5148C43.8385 30.6203 43.9754 30.6147 44.2656 30.4666C44.5994 30.2963 44.8233 29.985 44.8978 29.5877C44.9628 29.2418 44.6899 28.685 44.3427 28.4549C44.1085 28.2997 43.9991 28.2853 43.0554 28.2853C42.4882 28.2853 41.4572 28.263 40.7643 28.2356L39.5044 28.186L41.5751 26.1079C43.3824 24.2942 43.6526 23.993 43.6989 23.7401C43.7968 23.2053 43.4686 22.5828 42.9932 22.4015C42.7296 22.3011 42.2436 22.3218 42.0151 22.4432C41.9033 22.5026 40.2527 24.1128 38.3471 26.0213L34.8824 29.4914L34.8447 26.8977C34.8086 24.4152 34.8003 24.2951 34.6495 24.0916C34.1013 23.3523 33.1777 23.3524 32.6297 24.0917C32.4754 24.2999 32.4717 24.3833 32.4508 28.1247L32.4293 31.945L31.0126 33.3602L29.5959 34.7755L29.5469 34.0348C29.5199 33.6274 29.4969 32.4806 29.4958 31.4864C29.4939 29.8871 29.4776 29.6432 29.3535 29.37C28.9721 28.5302 27.8388 28.4377 27.331 29.205L27.1315 29.5065L27.1532 33.3516L27.175 37.1965L25.4933 38.8795C24.5684 39.8051 23.7895 40.5624 23.7626 40.5624C23.6883 40.5624 23.3556 39.685 23.2198 39.1314C22.3784 35.699 22.8481 31.9441 24.5389 28.5876C26.0067 25.6736 27.8916 23.8572 31.0034 22.358C33.8934 20.9657 38.0859 19.7732 41.136 19.4761C41.5906 19.4318 42.1319 19.3838 42.339 19.3694C42.9738 19.3253 44.4196 19.4052 44.961 19.5142Z" fill="white"/>
</svg>
