<svg width="24" height="24" viewBox="0 0 24 24" fill="none" xmlns="http://www.w3.org/2000/svg">
<path fill-rule="evenodd" clip-rule="evenodd" d="M10.7957 2.03864C6.55557 2.52498 3.03805 5.78684 2.21276 9.99784C2.10209 10.5625 2.05704 10.9268 2.02623 11.5056L2 11.9986H2.78676H3.57348V11.787C3.57348 11.6706 3.59183 11.3925 3.61423 11.1691C3.97316 7.59249 6.52676 4.63022 9.97904 3.78572C10.6547 3.62044 11.1861 3.55814 11.9279 3.55732C12.9614 3.55614 13.6889 3.67042 14.6216 3.98045C16.3767 4.56388 17.8675 5.7016 18.9203 7.26103L19.1921 7.66365L18.2537 7.67416L17.3153 7.68468V8.46857V9.25247H19.6381H21.961V6.89866V4.54486H21.1808H20.4007L20.3903 5.58873L20.3799 6.6326L20.1847 6.34462C19.8635 5.8708 19.5511 5.49285 19.0744 5.00146C17.4831 3.36086 15.4269 2.33338 13.1783 2.05516C12.6494 1.98969 11.3038 1.98039 10.7957 2.03864ZM8.36913 8.14422C7.64285 8.88468 7.61361 8.9398 7.61486 9.56631C7.6156 9.93915 7.62965 10.0191 7.76297 10.4098C8.18452 11.6448 8.77698 12.5181 10.093 13.8444C11.3469 15.1081 12.121 15.6466 13.4922 16.2087C14.3289 16.5517 14.645 16.5801 15.1186 16.3551C15.3066 16.2657 15.4698 16.1244 15.9427 15.6413L16.5324 15.0389L15.2454 13.7446L13.9583 12.4502L13.3233 13.0875C12.974 13.4379 12.6643 13.7247 12.6349 13.7247C12.5507 13.7247 11.9556 13.2068 11.3972 12.6477C10.8585 12.1083 10.2492 11.4212 10.2492 11.3532C10.2492 11.331 10.5345 11.0258 10.8832 10.6749L11.5173 10.0368L10.2686 8.78159C9.58181 8.09122 9.00985 7.52634 8.99755 7.52634C8.98525 7.52634 8.70249 7.80441 8.36913 8.14422ZM20.4384 12.2102C20.4384 12.8496 20.2512 13.9338 20.0211 14.627C19.1098 17.3718 16.8888 19.4655 14.1316 20.1787C13.4055 20.3665 12.8072 20.4409 12.0255 20.4406C11.0118 20.4403 10.2911 20.326 9.35328 20.0169C7.61451 19.4438 6.10302 18.2921 5.05779 16.7439L4.78073 16.3335L5.73867 16.323L6.69662 16.3125V15.5286V14.7447H4.35426H2.01191V17.0985V19.4523H2.79207H3.57219L3.58261 18.4084L3.593 17.3645L3.78819 17.6525C4.10937 18.1263 4.4218 18.5043 4.89843 18.9957C6.52918 20.6769 8.65845 21.7166 10.9805 21.9653C11.6322 22.0351 13.0706 21.9944 13.6556 21.8896C15.4192 21.5736 16.9526 20.8783 18.3108 19.7786C18.8035 19.3797 19.5905 18.5644 19.9638 18.0662C20.9139 16.7981 21.5482 15.3651 21.8221 13.8678C21.9216 13.3241 21.9996 12.6023 21.9999 12.2241L22 11.9986H21.2192H20.4384V12.2102Z" fill="#FFCF52"/>
</svg>
