<svg width="30" height="30" viewBox="0 0 30 30" fill="none" xmlns="http://www.w3.org/2000/svg">
<path fill-rule="evenodd" clip-rule="evenodd" d="M5.24749 2.07054C4.64084 2.20255 4.37051 2.38928 3.29694 3.41799C2.07292 4.59084 2 4.688 2 5.14552C2 5.43245 2.02134 5.51502 2.13892 5.68337C2.41372 6.07686 2.83749 6.23433 3.29222 6.11192C3.47387 6.06299 3.62982 5.94043 4.1165 5.46401L4.71675 4.87641L4.73032 13.3824L4.74388 21.8883L4.88575 22.3456C5.29393 23.6616 6.32421 24.6919 7.64021 25.1001L8.09752 25.2419L16.5767 25.2555L25.0559 25.2691L24.4683 25.8741C23.9994 26.357 23.869 26.5234 23.8218 26.6984C23.6098 27.4856 24.3024 28.1737 25.0927 27.9609C25.2881 27.9083 25.4657 27.7544 26.4044 26.825C27.4029 25.8363 27.506 25.7174 27.6897 25.3436C28.0737 24.5622 28.0715 23.8144 27.6832 23.0386C27.5083 22.689 27.3768 22.5386 26.4034 21.5748C25.4656 20.6461 25.2881 20.4923 25.0927 20.4397C24.6441 20.3189 24.1898 20.4904 23.9257 20.8803C23.8221 21.0333 23.7986 21.1295 23.7986 21.4019C23.7986 21.818 23.8467 21.8932 24.6063 22.6639L25.1704 23.2363L16.761 23.2229L8.35158 23.2094L8.07831 23.0975C7.50957 22.8646 7.11602 22.4753 6.89443 21.9265L6.77639 21.6342L6.76293 13.1994L6.74951 4.76462L7.32187 5.3287C8.09208 6.08773 8.16835 6.13662 8.58024 6.13535C8.85478 6.13448 8.94482 6.11101 9.11377 5.99627C9.51026 5.72707 9.6686 5.30502 9.54761 4.84013C9.49502 4.6381 9.36494 4.4912 8.4118 3.55726C7.23055 2.3999 6.95876 2.20783 6.30673 2.06967C5.89154 1.98166 5.65501 1.98187 5.24749 2.07054ZM11.5052 2.03197C11.2719 2.09142 11.0168 2.32033 10.886 2.58766C10.6526 3.06458 10.7904 3.5502 11.2479 3.86316L11.4512 4.00223L18.3617 4.02764L25.2722 4.05304L25.4662 4.17362C25.5729 4.23993 25.7215 4.38688 25.7964 4.50019L25.9328 4.70614L25.9582 11.6458L25.9836 18.5855L26.1227 18.7887C26.3121 19.0656 26.5542 19.2178 26.8637 19.2544C27.2156 19.2961 27.6103 19.1087 27.8192 18.8008L27.9653 18.5855L27.9787 11.6878C27.9936 4.0224 28.0089 4.39857 27.653 3.67195C27.3959 3.14685 26.8389 2.58989 26.3139 2.33283C25.595 1.9809 25.9641 1.99635 18.4125 2.00189C14.6676 2.00468 11.5593 2.0182 11.5052 2.03197ZM21.0348 7.53788C20.1088 7.71974 19.3375 8.53838 19.1892 9.49691C19.1207 9.93883 19.1598 10.156 19.3568 10.4279C19.7479 10.9678 20.5831 10.9678 20.9742 10.4279C21.0591 10.3107 21.1419 10.1318 21.1581 10.0302C21.2172 9.66078 21.2375 9.61261 21.3573 9.55804C21.5231 9.48248 21.7084 9.53786 21.7881 9.68685C21.8465 9.79604 21.8378 9.84035 21.712 10.0715C21.4917 10.4761 20.8043 11.2964 19.9992 12.1151C19.3859 12.7389 19.2561 12.8978 19.2019 13.0912C19.0385 13.675 19.4313 14.2805 20.031 14.369C20.1469 14.3862 20.9163 14.3929 21.7407 14.3841C23.2164 14.3683 23.2427 14.3661 23.4336 14.2474C23.5404 14.1811 23.689 14.0341 23.7639 13.9209C23.8771 13.7499 23.9003 13.6582 23.9003 13.3809C23.9003 12.7853 23.5538 12.4232 22.9363 12.3736C22.7539 12.359 22.6045 12.3362 22.6045 12.3231C22.6045 12.3099 22.7159 12.1587 22.8521 11.987C23.4224 11.2681 23.7829 10.5678 23.8501 10.0488C23.8681 9.90915 23.859 9.64909 23.8298 9.47089C23.6153 8.16003 22.344 7.28077 21.0348 7.53788ZM9.45478 11.0942C9.21977 11.1661 8.90158 11.5012 8.83557 11.7464C8.79818 11.8853 8.78522 13.0317 8.79482 15.3478L8.8089 18.7454L8.94523 18.9514C9.15514 19.2685 9.40351 19.3985 9.79974 19.3985C10.1959 19.3985 10.4443 19.2685 10.6543 18.9514L10.7906 18.7455L10.816 16.1757C10.8413 13.6184 10.842 13.6051 10.9547 13.4469C11.2555 13.0253 11.9008 13.0253 12.2017 13.4469C12.3144 13.6051 12.3151 13.6184 12.3404 16.1757L12.3658 18.7455L12.5021 18.9514C12.7121 19.2685 12.9604 19.3985 13.3566 19.3985C13.7528 19.3985 14.0012 19.2685 14.2111 18.9514L14.3475 18.7455L14.3729 16.1757C14.3982 13.6184 14.3989 13.6051 14.5116 13.4469C14.8404 12.9861 15.575 13.0436 15.8148 13.549C15.8873 13.7019 15.8973 14.0167 15.8973 16.161V18.5993L16.0387 18.8701C16.1533 19.0893 16.2318 19.1679 16.4511 19.2824C16.797 19.4631 17.03 19.4631 17.376 19.2824C17.5952 19.1679 17.6738 19.0893 17.7883 18.8701L17.9298 18.5993V16.1246C17.9298 14.5794 17.9092 13.5367 17.8751 13.3484C17.6833 12.2902 16.7351 11.3472 15.6526 11.1381C15.0047 11.0129 14.2454 11.158 13.6613 11.5185L13.359 11.7051L13.0208 11.5011C12.5224 11.2006 12.2119 11.1201 11.5528 11.1208C11.1481 11.1212 10.9266 11.146 10.7502 11.2104C10.5117 11.2976 10.503 11.2972 10.332 11.1914C10.1301 11.0666 9.70046 11.019 9.45478 11.0942Z" fill="#3C7C31"/>
</svg>
