<svg width="30" height="30" viewBox="0 0 30 30" fill="none" xmlns="http://www.w3.org/2000/svg">
<path fill-rule="evenodd" clip-rule="evenodd" d="M24.1031 2.05606C23.9692 2.09904 23.7626 2.2289 23.644 2.34462C23.3254 2.65569 23.2654 2.92318 23.2654 4.03327V4.9626L22.8064 4.61637C21.3266 3.50024 19.5764 2.7031 17.6928 2.2874C16.0811 1.93164 13.9075 1.94261 12.1778 2.31523C10.9261 2.58483 9.25754 3.26497 8.13281 3.96396C6.6837 4.86462 5.19384 6.28916 4.25924 7.66763C1.31955 12.0038 1.24237 17.7068 4.06462 22.045C4.77437 23.136 5.83034 24.3208 6.76932 25.0798C9.03725 26.9132 11.8311 27.9482 14.6431 27.9967C15.2614 28.0074 15.326 27.9984 15.5556 27.8696C15.927 27.6612 16.1301 27.3365 16.1574 26.9074C16.1836 26.4951 16.0675 26.2132 15.7601 25.9433C15.4982 25.7135 15.312 25.6669 14.5045 25.6296C9.28837 25.3888 5.06204 21.4499 4.41545 16.2267C4.34076 15.6235 4.34076 14.3872 4.41545 13.7841C4.70683 11.4304 5.71124 9.3041 7.31688 7.64212C10.5652 4.27974 15.4908 3.41357 19.689 5.46635C20.3168 5.77332 21.1488 6.28867 21.5188 6.59962L21.6851 6.73947L20.5601 6.74146C19.5643 6.74324 19.4114 6.7556 19.2293 6.84926C18.3325 7.31059 18.3325 8.50519 19.2293 8.96653C19.4233 9.06628 19.5861 9.07233 22.0728 9.07233C24.9488 9.07233 24.9382 9.07338 25.2825 8.75055C25.3702 8.66832 25.4882 8.5012 25.5446 8.37921C25.6399 8.17338 25.6474 7.96944 25.6485 5.54376L25.6498 2.93011L25.4948 2.63357C25.2285 2.12371 24.646 1.88206 24.1031 2.05606ZM14.449 6.86822C14.3118 6.94152 14.1247 7.10776 14.0332 7.23762L13.8668 7.47378L13.8502 11.3366C13.8381 14.1398 13.8511 15.2603 13.8976 15.4213C13.9506 15.6046 14.2851 15.9679 15.8257 17.5154C16.8508 18.5452 17.788 19.456 17.9082 19.5393C18.1 19.6722 18.1792 19.6908 18.5523 19.6908C18.9258 19.6908 19.0041 19.6724 19.1946 19.5392C19.5221 19.3106 19.6786 19.0431 19.7059 18.6657C19.7486 18.0758 19.7475 18.0743 17.8805 16.1961L16.1704 14.4757L16.1553 10.9791L16.1402 7.48249L15.9886 7.26546C15.7462 6.91824 15.491 6.77712 15.065 6.75444C14.7605 6.73825 14.6564 6.75743 14.449 6.86822ZM26.3429 13.943C25.5585 14.3169 25.4148 15.3137 26.0631 15.8829C26.326 16.1138 26.4738 16.1698 26.8196 16.1698C27.5094 16.1698 27.9957 15.6859 27.9966 14.9983C27.9972 14.6088 27.7978 14.239 27.47 14.0222C27.1709 13.8242 26.6665 13.7888 26.3429 13.943ZM25.4557 18.4717C24.6759 18.8908 24.5308 19.8633 25.165 20.4202C25.4231 20.6468 25.7034 20.7351 26.0685 20.7048C27.1371 20.6162 27.4924 19.2098 26.6039 18.586C26.4075 18.4482 26.3007 18.4157 25.9939 18.4006C25.7289 18.3876 25.5742 18.4081 25.4557 18.4717ZM23.0191 22.2255C22.6893 22.3158 22.3007 22.731 22.2161 23.0836C22.0878 23.6184 22.3367 24.1518 22.829 24.3972C23.3196 24.6416 23.8019 24.5627 24.1908 24.1744C25.037 23.3294 24.1821 21.9072 23.0191 22.2255ZM19.1345 24.8322C18.7427 24.9711 18.4355 25.3423 18.357 25.7717C18.2932 26.1211 18.4556 26.5486 18.7509 26.8085C19.4687 27.4403 20.5409 27.0494 20.6926 26.1008C20.827 25.2605 19.947 24.5441 19.1345 24.8322Z" fill="#3C7C31"/>
</svg>
