<svg width="30" height="30" viewBox="0 0 30 30" fill="none" xmlns="http://www.w3.org/2000/svg">
<path fill-rule="evenodd" clip-rule="evenodd" d="M13.8271 2.03077C11.3162 2.27674 8.99549 3.20231 6.96074 4.76927C5.96986 5.53233 4.68306 6.96638 3.93943 8.13619C3.61828 8.64142 2.99311 9.92166 2.76916 10.5326C2.51876 11.2158 2.25188 12.2599 2.12055 13.07C1.95982 14.0615 1.95982 15.9441 2.12055 16.9356C2.34781 18.3373 2.70731 19.4705 3.32266 20.725C3.99498 22.0955 4.69405 23.067 5.81351 24.1865C6.93302 25.306 7.90451 26.005 9.27504 26.6773C10.5295 27.2927 11.6627 27.6522 13.0644 27.8795C14.0559 28.0402 15.9385 28.0402 16.93 27.8795C18.3317 27.6522 19.4649 27.2927 20.7194 26.6773C22.0899 26.005 23.0614 25.306 24.1809 24.1865C25.3004 23.067 25.9994 22.0955 26.6718 20.725C27.1183 19.8146 27.3429 19.218 27.5835 18.3031C27.9039 17.0847 27.9852 16.4168 27.9852 15.0028C27.9852 13.5888 27.9039 12.9209 27.5835 11.7025C27.3429 10.7876 27.1183 10.191 26.6718 9.28063C25.9994 7.9101 25.3004 6.93861 24.1809 5.8191C23.0614 4.69964 22.0899 4.00056 20.7194 3.32825C19.4661 2.71346 18.3105 2.34668 16.9555 2.13351C16.2078 2.01591 14.5384 1.96108 13.8271 2.03077ZM16.574 4.04349C18.4404 4.32034 20.1599 5.0389 21.6604 6.16899C22.2804 6.63602 23.364 7.71957 23.831 8.33965C25.307 10.2993 26.0549 12.5401 26.0549 15.0028C26.0549 17.4655 25.307 19.7063 23.831 21.6659C23.364 22.286 22.2804 23.3696 21.6604 23.8366C19.7007 25.3126 17.4599 26.0605 14.9972 26.0605C12.5345 26.0605 10.2937 25.3126 8.33406 23.8366C7.71398 23.3696 6.63043 22.286 6.1634 21.6659C4.68744 19.7063 3.93954 17.4655 3.93954 15.0028C3.93954 12.5401 4.68744 10.2993 6.1634 8.33965C6.63043 7.71957 7.71398 6.63602 8.33406 6.16899C10.0447 4.88061 11.9753 4.15316 14.2343 3.94584C14.6622 3.90657 16.0379 3.96399 16.574 4.04349ZM12.4286 9.68362C12.2126 9.78041 12.0506 9.94887 11.9407 10.1908C11.8505 10.3896 11.8458 10.6213 11.8448 15.0055L11.8437 19.6114L11.97 19.863C12.1264 20.1747 12.3753 20.3509 12.704 20.3824C13.1489 20.4252 13.5131 20.2318 13.68 19.8643C13.7661 19.6747 13.7743 19.4979 13.7754 17.813L13.7765 15.9692H15.2955C16.9154 15.9692 17.1467 15.9464 17.6817 15.7336C19.1727 15.1406 19.9769 13.5479 19.5762 11.9813C19.4275 11.4001 19.2034 11.0185 18.7364 10.5515C18.2694 10.0845 17.8878 9.86037 17.3066 9.7117C16.9449 9.61917 16.7422 9.61139 14.7475 9.61322C13.0461 9.6148 12.5484 9.62991 12.4286 9.68362ZM17.0063 11.6653C18.0416 12.1547 17.954 13.6362 16.8707 13.9579C16.6601 14.0204 16.3185 14.0364 15.1914 14.0364H13.7765V11.5441L15.2642 11.5446C16.7221 11.545 16.7571 11.5475 17.0063 11.6653Z" fill="#3C7C31"/>
<path d="M10.3417 17.844C10.3417 17.3244 10.7629 16.9031 11.2826 16.9031H18.0475C18.5672 16.9031 18.9885 17.3244 18.9885 17.844C18.9885 18.3637 18.5672 18.785 18.0475 18.785H11.2826C10.7629 18.785 10.3417 18.3637 10.3417 17.844Z" fill="#3C7C31"/>
</svg>
