<svg width="24" height="24" viewBox="0 0 24 24" fill="none" xmlns="http://www.w3.org/2000/svg">
<path d="M13.3217 11.9996L17.8083 7.51278C17.9317 7.38927 17.9998 7.22449 18 7.04878C18 6.87298 17.9319 6.708 17.8083 6.58468L17.4151 6.19161C17.2915 6.0678 17.1267 6 16.9508 6C16.7752 6 16.6104 6.0678 16.4868 6.19161L12.0002 10.6781L7.51337 6.19161C7.38995 6.0678 7.22507 6 7.04927 6C6.87366 6 6.70878 6.0678 6.58537 6.19161L6.192 6.58468C5.936 6.84068 5.936 7.25707 6.192 7.51278L10.6787 11.9996L6.192 16.4862C6.06849 16.61 6.00049 16.7747 6.00049 16.9504C6.00049 17.1262 6.06849 17.2909 6.192 17.4145L6.58527 17.8076C6.70868 17.9313 6.87366 17.9992 7.04917 17.9992C7.22498 17.9992 7.38985 17.9313 7.51327 17.8076L12.0001 13.321L16.4867 17.8076C16.6103 17.9313 16.7751 17.9992 16.9507 17.9992H16.9509C17.1266 17.9992 17.2914 17.9313 17.415 17.8076L17.8082 17.4145C17.9316 17.291 17.9997 17.1262 17.9997 16.9504C17.9997 16.7747 17.9316 16.61 17.8082 16.4863L13.3217 11.9996Z" fill="#FEAAAA"/>
</svg>
