<svg width="67" height="66" viewBox="0 0 67 66" fill="none" xmlns="http://www.w3.org/2000/svg">
<rect x="0.5" width="66" height="66" rx="33" fill="#FFCF52"/>
<path fill-rule="evenodd" clip-rule="evenodd" d="M42.8566 17.0675C41.8536 17.2319 40.461 17.7954 39.9505 18.2436C39.1836 18.9169 39.6217 20.1929 40.6489 20.2781C40.9549 20.3034 41.0518 20.2746 41.7311 19.9556C42.6327 19.532 43.1489 19.4014 43.9337 19.3979C46.3007 19.3877 47.628 21.3885 46.898 23.8668C46.7821 24.2604 46.4464 24.9498 46.1871 25.3266C44.7547 27.4085 42.1755 28.3923 40.3429 27.5556C40.1326 27.4597 39.7494 27.2074 39.4913 26.9951C38.9123 26.5189 38.5009 26.3534 37.8958 26.3534C36.2016 26.3534 35.1236 28.0398 35.8455 29.5608C36.5194 30.9803 38.31 31.3054 39.4737 30.2195L39.7729 29.9402L40.2422 30.0655C40.5594 30.1503 40.9986 30.2013 41.5982 30.223L42.485 30.2551L42.5191 30.5446C42.604 31.2652 42.6959 33.0968 42.6694 33.5379C42.6113 34.505 42.9434 34.1286 36.4439 40.5948C32.3858 44.6322 30.5802 46.3879 30.3976 46.4741C30.0276 46.6489 29.4147 46.638 29.0423 46.45C28.6557 46.2548 20.2268 37.8316 20.0372 37.4509C19.8431 37.0613 19.8123 36.7034 19.9356 36.2714L20.041 35.9021L25.8713 30.065C32.3459 23.5827 32.0179 23.8741 32.9118 23.8102C33.1479 23.7933 35.5767 23.9283 38.309 24.11C41.1181 24.297 43.3793 24.4214 43.5127 24.3963C43.9731 24.3098 44.4315 23.7288 44.4315 23.2319C44.4315 22.7642 44.0595 22.2592 43.6068 22.1126C43.4941 22.0761 41.062 21.8901 38.202 21.6994C32.5952 21.3255 32.5659 21.3251 31.6746 21.6104C31.1873 21.7663 30.8733 21.9223 30.4188 22.2343C30.2295 22.3642 27.3839 25.1689 24.0953 28.4668C18.5568 34.0209 18.1016 34.4932 17.9219 34.8732C17.588 35.5789 17.501 35.9589 17.5 36.7155C17.4993 37.2602 17.5293 37.5016 17.644 37.873C17.9569 38.8857 17.9071 38.8292 22.7777 43.6986C27.5738 48.4935 27.5475 48.4701 28.5047 48.7914C29.5169 49.1312 30.5392 49.0555 31.545 48.5664L32.0769 48.3077L38.0436 42.3552C42.5438 37.8657 44.0838 36.2917 44.3094 35.9514C44.4739 35.7031 44.6951 35.2608 44.8009 34.9683C45.1135 34.1043 45.14 33.658 44.9979 31.6474C44.8357 29.3543 44.8302 29.5214 45.0728 29.4209C45.3922 29.2886 46.3054 28.6616 46.7619 28.261C48.7728 26.4971 49.8142 23.8472 49.4092 21.5249C49.0254 19.324 47.5412 17.715 45.3778 17.1543C44.7448 16.9903 43.5744 16.95 42.8566 17.0675Z" fill="white"/>
</svg>
