<svg width="67" height="66" viewBox="0 0 67 66" fill="none" xmlns="http://www.w3.org/2000/svg">
<rect x="0.5" width="66" height="66" rx="33" fill="#FFCF52"/>
<path fill-rule="evenodd" clip-rule="evenodd" d="M25.1914 19.9698C21.1485 21.6323 17.9094 22.9988 17.8255 23.0771C17.4803 23.3994 17.5002 22.7926 17.5002 32.9988C17.5002 43.2051 17.4803 42.5982 17.8255 42.9206C18.028 43.1096 32.3728 49 32.6307 49C32.841 49 47.0385 43.2052 47.3149 43.0066C47.4009 42.9449 47.5345 42.8013 47.6118 42.6877L47.7525 42.481V32.9988V23.5166L47.6118 23.31C47.5344 23.1963 47.4009 23.0528 47.3149 22.991C47.0167 22.7767 32.8395 16.9975 32.6181 17C32.4875 17.0015 29.6668 18.1295 25.1914 19.9698ZM34.3522 19.7855C35.2422 20.15 35.9895 20.4664 36.013 20.4886C36.0647 20.5376 24.8918 25.4126 24.7906 25.3852C24.6507 25.3474 21.1557 23.9126 21.1092 23.8739C21.0525 23.8268 32.4113 19.1367 32.6021 19.1285C32.6747 19.1253 33.4623 19.421 34.3522 19.7855ZM41.4882 22.72C42.976 23.3316 44.1714 23.851 44.1447 23.8743C44.1179 23.8976 41.5167 24.9747 38.3644 26.2679L32.6328 28.619L30.1169 27.586C28.7332 27.0179 27.5661 26.5336 27.5235 26.5097C27.4797 26.4852 28.5247 25.9964 29.9268 25.3857C31.2912 24.7913 33.8139 23.6892 35.5328 22.9366C37.2517 22.1839 38.6862 21.5771 38.7205 21.5881C38.7549 21.5991 40.0004 22.1084 41.4882 22.72ZM21.7894 26.3305L23.9694 27.2252L24.0007 30.0027C24.0299 32.5943 24.0399 32.7932 24.1513 32.9773C24.5278 33.5993 25.5064 33.5641 25.8611 32.9157C25.9568 32.7409 25.9733 32.4436 26.0008 30.3952L26.0321 28.0728L28.8136 29.2158L31.595 30.3588L31.6109 38.4283L31.6268 46.4979L31.3534 46.3895C31.203 46.3299 28.4752 45.2122 25.2916 43.9059L19.5032 41.5307L19.5018 33.4832C19.501 28.946 19.5241 25.4358 19.5549 25.4358C19.5849 25.4358 20.5904 25.8384 21.7894 26.3305ZM45.7522 33.4832L45.7522 41.5307L44.2678 42.1367C43.1796 42.5808 34.3439 46.2144 33.7043 46.4808C33.6417 46.5068 33.6291 44.8919 33.6418 38.4383L33.6577 30.3634L39.6269 27.9048C42.9099 26.5526 45.6312 25.4439 45.6742 25.441C45.7363 25.4368 45.7523 27.0841 45.7522 33.4832Z" fill="white"/>
</svg>
