<svg width="24" height="24" viewBox="0 0 24 24" fill="none" xmlns="http://www.w3.org/2000/svg">
<path fill-rule="evenodd" clip-rule="evenodd" d="M11.7031 5.00661C11.0775 5.07827 10.7191 5.1558 10.3166 5.30642C9.24449 5.70762 8.34967 6.44426 7.74041 7.42722C7.1663 8.3534 6.90116 9.55421 7.03344 10.6288C7.24585 12.3542 8.47439 14.7367 10.5115 17.3736C10.9933 17.9973 11.6126 18.7441 11.7546 18.8726C11.9423 19.0425 12.1741 19.0425 12.3618 18.8726C12.5037 18.7441 13.1231 17.9973 13.6049 17.3736C15.4383 15.0003 16.6135 12.8441 16.9853 11.1713C17.081 10.7408 17.1115 10.46 17.1111 10.0131C17.1099 8.69825 16.5839 7.44241 15.6377 6.49492C14.8554 5.71167 13.9336 5.23724 12.8503 5.06035C12.5938 5.01845 11.8882 4.9854 11.7031 5.00661ZM12.3772 7.5375C13.3966 7.67603 14.2407 8.40941 14.5171 9.39667C14.59 9.65697 14.6176 10.1803 14.5733 10.4638C14.4469 11.2736 13.9156 11.9859 13.1644 12.3526C12.7214 12.5688 12.2698 12.6503 11.8055 12.5976C11.4454 12.5568 11.2627 12.5043 10.9519 12.3526C10.2008 11.9859 9.66951 11.2736 9.54307 10.4638C9.49879 10.1803 9.52635 9.65697 9.59923 9.39667C9.9408 8.17673 11.1459 7.37019 12.3772 7.5375Z" fill="white"/>
</svg>
